<svg width="15" height="9" viewBox="0 0 15 9" fill="none" xmlns="http://www.w3.org/2000/svg">
<path d="M9.97495 7.1465L14.5609 2.56058C14.8421 2.27919 15.0001 1.8976 15 1.49975C14.9999 1.1019 14.8418 0.720376 14.5604 0.439119C14.279 0.157862 13.8974 -9.37248e-05 13.4995 4.17227e-08C13.1017 9.38082e-05 12.7202 0.15823 12.4389 0.43962L7.85399 5.02554C7.80754 5.0721 7.75237 5.10904 7.69162 5.13425C7.63088 5.15945 7.56576 5.17243 7.49999 5.17243C7.43423 5.17243 7.36911 5.15945 7.30836 5.13425C7.24762 5.10904 7.19245 5.0721 7.146 5.02554L2.56107 0.43962C2.27982 0.15823 1.8983 9.38082e-05 1.50044 4.17228e-08C1.10259 -9.37248e-05 0.720999 0.157862 0.439609 0.439119C0.158219 0.720376 8.1061e-05 1.1019 -1.23976e-05 1.49975C-0.000105856 1.8976 0.15785 2.27919 0.439107 2.56058L5.02503 7.1465C5.68206 7.80172 6.57209 8.16967 7.49999 8.16967C8.42789 8.16967 9.31793 7.80172 9.97495 7.1465Z" fill="white"/>
</svg>
