<svg width="9" height="15" viewBox="0 0 9 15" fill="none" xmlns="http://www.w3.org/2000/svg">
<path d="M7.1465 5.02505L2.56058 0.43912C2.27919 0.157862 1.8976 -9.3725e-05 1.49975 4.17228e-08C1.1019 9.38084e-05 0.720376 0.158229 0.439119 0.43962C0.157862 0.72101 -9.37248e-05 1.1026 4.17227e-08 1.50046C9.38082e-05 1.89831 0.15823 2.27983 0.43962 2.56109L5.02554 7.14601C5.0721 7.19246 5.10904 7.24763 5.13425 7.30838C5.15945 7.36912 5.17243 7.43424 5.17243 7.50001C5.17243 7.56577 5.15945 7.63089 5.13425 7.69164C5.10904 7.75238 5.0721 7.80755 5.02554 7.854L0.43962 12.4389C0.15823 12.7202 9.38082e-05 13.1017 4.17227e-08 13.4996C-9.37248e-05 13.8974 0.157862 14.279 0.439119 14.5604C0.720376 14.8418 1.1019 14.9999 1.49975 15C1.8976 15.0001 2.27919 14.8422 2.56058 14.5609L7.1465 9.97497C7.80172 9.31794 8.16967 8.42791 8.16967 7.50001C8.16967 6.57211 7.80172 5.68207 7.1465 5.02505Z" fill="white"/>
</svg>
