<svg width="9" height="15" viewBox="0 0 9 15" fill="none" xmlns="http://www.w3.org/2000/svg">
<path d="M7.14649 5.02504L2.56058 0.439119C2.27919 0.157862 1.8976 -9.37249e-05 1.49975 4.17228e-08C1.10189 9.38083e-05 0.720375 0.158229 0.439119 0.439619C0.157862 0.721009 -9.37247e-05 1.1026 4.17227e-08 1.50045C9.38081e-05 1.89831 0.15823 2.27983 0.439619 2.56108L5.02553 7.146C5.07209 7.19245 5.10904 7.24762 5.13424 7.30837C5.15945 7.36911 5.17242 7.43423 5.17242 7.5C5.17242 7.56576 5.15945 7.63088 5.13424 7.69163C5.10904 7.75237 5.07209 7.80755 5.02553 7.85399L0.439619 12.4389C0.15823 12.7202 9.38081e-05 13.1017 4.17227e-08 13.4995C-9.37247e-05 13.8974 0.157862 14.279 0.439119 14.5604C0.720375 14.8418 1.10189 14.9999 1.49975 15C1.8976 15.0001 2.27919 14.8421 2.56058 14.5609L7.14649 9.97496C7.80171 9.31793 8.16966 8.4279 8.16966 7.5C8.16966 6.5721 7.80171 5.68206 7.14649 5.02504Z" fill="white"/>
</svg>
